<?xml version="1.0" encoding="utf-8"?>
<!-- Svg Vector Icons : http://www.onlinewebfonts.com/icon -->
<!DOCTYPE svg PUBLIC "-//W3C//DTD SVG 1.1//EN" "http://www.w3.org/Graphics/SVG/1.1/DTD/svg11.dtd">
<svg version="1.1" xmlns="http://www.w3.org/2000/svg" xmlns:xlink="http://www.w3.org/1999/xlink" x="0px" y="0px" viewBox="0 0 1000 1000" enable-background="new 0 0 1000 1000" xml:space="preserve">
<metadata> Svg Vector Icons : http://www.onlinewebfonts.com/icon </metadata>
<g><path d="M696.7,861c1.7,7.4,3.3,14.3,4.8,20.6C700.2,874.5,698.6,867.7,696.7,861z"/><path d="M975.8,240.1c-40.7-98.3-65-121.8-65-121.8s22.4,56.9-13.6,98.6c-36,41.7-192.7,56.4-237.5,171.8c-14,36.1-20.8,65.5-23.8,88.7c-25.3-133.8-87.4-279.3-265.3-306.2C170,140.9,152.1,217.4,10,210.1c0,0,119,31.4,169.4,165.3c50.4,133.9,153.2,347.3,364.9,366.1c85,7.7,132.6,47.1,152.4,119.6c-31.5-138.4-97.5-465-501.2-625.9c66.3,8.3,376.6,35.5,456.7,379c-3,40.5,3.4,99.4,35.2,187.6c0,0-42.7-144.4-17-185.4c25.8-41,90.9-45,160.9-72.6C901.4,516.2,1033.5,379.9,975.8,240.1z M794.9,421.8c-41.5,36.8-116.6,100.5-130.3,135.8c-4.9,12.8-10,29.7-12.1,52.7c-2.1-25.6-4.8-54.3-8.9-84.6c9.8-23.7,32.8-70.1,74.1-106.8c42.8-38.1,132.8-96.1,193.8-152.5C903.1,301.3,836.4,385,794.9,421.8z"/></g>
</svg>